<svg xmlns="http://www.w3.org/2000/svg" width="82.865" height="61.953" viewBox="0 0 82.865 61.953">
  <g id="Logo_BFLV" data-name="Logo/BFLV" transform="translate(-265.008 -449.996)">
    <g id="Groupe_682" data-name="Groupe 682">
      <rect id="Rectangle_1036" data-name="Rectangle 1036" width="62.825" height="31.478" transform="translate(265.008 480.471)" fill="#d32c64"/>
      <rect id="Rectangle_1037" data-name="Rectangle 1037" width="64.069" height="13.789" transform="translate(271.926 449.996)" fill="#600a50"/>
    </g>
    <g id="Bordeaux" style="isolation: isolate">
      <g id="Groupe_1264" data-name="Groupe 1264" style="isolation: isolate">
        <path id="Tracé_2432" data-name="Tracé 2432" d="M280.137,460.986q-.684,0-1.362-.042a9.628,9.628,0,0,1-1.41-.2v-8.064a11.972,11.972,0,0,1,1.26-.162q.684-.054,1.272-.054a8.664,8.664,0,0,1,1.458.114,3.454,3.454,0,0,1,1.146.39,2.043,2.043,0,0,1,.75.726,2.123,2.123,0,0,1,.27,1.11,1.762,1.762,0,0,1-.96,1.572,1.965,1.965,0,0,1,1.08.816,2.347,2.347,0,0,1,.288,1.164,2.236,2.236,0,0,1-.954,1.968A5,5,0,0,1,280.137,460.986Zm-.948-5.16h.912a2.541,2.541,0,0,0,1.236-.222.769.769,0,0,0,.372-.714.734.734,0,0,0-.384-.708,2.468,2.468,0,0,0-1.128-.2q-.24,0-.516.006t-.492.03Zm0,1.428V459.4q.2.024.444.036t.528.012a3.243,3.243,0,0,0,1.356-.24.89.89,0,0,0,.516-.888.87.87,0,0,0-.432-.822,2.531,2.531,0,0,0-1.236-.246Z" fill="#fff"/>
        <path id="Tracé_2433" data-name="Tracé 2433" d="M291.213,457.71a4.1,4.1,0,0,1-.216,1.362,2.959,2.959,0,0,1-.624,1.056,2.817,2.817,0,0,1-.978.678,3.491,3.491,0,0,1-2.544,0,2.808,2.808,0,0,1-.978-.678,3.1,3.1,0,0,1-.636-1.056,3.908,3.908,0,0,1-.228-1.362,3.769,3.769,0,0,1,.234-1.356,3.075,3.075,0,0,1,.648-1.044,2.9,2.9,0,0,1,.984-.672,3.161,3.161,0,0,1,1.242-.241,3.2,3.2,0,0,1,1.254.241,2.834,2.834,0,0,1,.978.672,3.049,3.049,0,0,1,.636,1.044A3.858,3.858,0,0,1,291.213,457.71Zm-1.824,0a2.248,2.248,0,0,0-.33-1.3,1.079,1.079,0,0,0-.942-.474,1.094,1.094,0,0,0-.948.474,2.217,2.217,0,0,0-.336,1.3,2.275,2.275,0,0,0,.336,1.314,1.086,1.086,0,0,0,.948.486,1.071,1.071,0,0,0,.942-.486A2.307,2.307,0,0,0,289.389,457.71Z" fill="#fff"/>
      </g>
      <g id="Groupe_1265" data-name="Groupe 1265" style="isolation: isolate">
        <path id="Tracé_2434" data-name="Tracé 2434" d="M296.4,456.15q-.242-.06-.564-.126a3.5,3.5,0,0,0-.7-.066,3.238,3.238,0,0,0-.4.03,2.393,2.393,0,0,0-.354.066v4.824h-1.788V454.9a10.756,10.756,0,0,1,1.135-.318,6.528,6.528,0,0,1,1.458-.15c.1,0,.212.005.347.018s.272.028.408.048.272.044.409.072a1.908,1.908,0,0,1,.347.1Z" fill="#fff"/>
      </g>
      <g id="Groupe_1266" data-name="Groupe 1266" style="isolation: isolate">
        <path id="Tracé_2435" data-name="Tracé 2435" d="M303.105,460.674q-.24.072-.552.138t-.654.114c-.228.032-.46.057-.7.078s-.462.03-.678.03a3.968,3.968,0,0,1-1.392-.228,2.8,2.8,0,0,1-1.032-.654,2.838,2.838,0,0,1-.642-1.032,3.938,3.938,0,0,1-.222-1.362,4.662,4.662,0,0,1,.192-1.386,3.017,3.017,0,0,1,.552-1.05,2.363,2.363,0,0,1,.882-.66,2.957,2.957,0,0,1,1.194-.228,2.808,2.808,0,0,1,.666.072,3.6,3.6,0,0,1,.594.2v-2.856l1.788-.288Zm-4.044-3a2.19,2.19,0,0,0,.372,1.332,1.285,1.285,0,0,0,1.1.5q.24,0,.444-.018c.136-.013.248-.026.336-.042V456.2a1.554,1.554,0,0,0-.438-.18,2.11,2.11,0,0,0-.546-.072Q299.061,455.946,299.061,457.674Z" fill="#fff"/>
        <path id="Tracé_2436" data-name="Tracé 2436" d="M304.485,457.77a3.86,3.86,0,0,1,.258-1.47,3.152,3.152,0,0,1,.678-1.05,2.811,2.811,0,0,1,.966-.636,3.026,3.026,0,0,1,1.122-.217,2.789,2.789,0,0,1,2.124.823,3.387,3.387,0,0,1,.78,2.418c0,.1,0,.218-.012.341s-.016.235-.024.331h-4.056a1.188,1.188,0,0,0,.516.876,2.074,2.074,0,0,0,1.224.324,5.254,5.254,0,0,0,.966-.09,3.647,3.647,0,0,0,.774-.222l.24,1.452a2.469,2.469,0,0,1-.384.144,5.026,5.026,0,0,1-.534.126q-.294.054-.63.09a6.307,6.307,0,0,1-.672.036,3.978,3.978,0,0,1-1.482-.252,2.887,2.887,0,0,1-1.044-.69,2.738,2.738,0,0,1-.612-1.038A4.111,4.111,0,0,1,304.485,457.77Zm4.2-.684a1.845,1.845,0,0,0-.078-.444,1.08,1.08,0,0,0-.552-.661,1.147,1.147,0,0,0-.522-.107,1.2,1.2,0,0,0-.516.1,1.066,1.066,0,0,0-.36.27,1.208,1.208,0,0,0-.222.39,2.558,2.558,0,0,0-.114.45Z" fill="#fff"/>
        <path id="Tracé_2437" data-name="Tracé 2437" d="M314.061,454.4a4.143,4.143,0,0,1,1.32.181,2.056,2.056,0,0,1,.846.516,1.907,1.907,0,0,1,.45.816,4.024,4.024,0,0,1,.132,1.068v3.72q-.384.084-1.068.2a10.272,10.272,0,0,1-1.656.114,5.251,5.251,0,0,1-1.11-.108,2.4,2.4,0,0,1-.858-.354,1.614,1.614,0,0,1-.553-.642,2.231,2.231,0,0,1-.191-.972A1.832,1.832,0,0,1,311.6,458a1.7,1.7,0,0,1,.594-.612,2.685,2.685,0,0,1,.852-.33,4.766,4.766,0,0,1,1-.1,5.65,5.65,0,0,1,.618.03,2.748,2.748,0,0,1,.438.078v-.168a.986.986,0,0,0-.277-.732,1.335,1.335,0,0,0-.96-.276,6.1,6.1,0,0,0-.9.066,3.863,3.863,0,0,0-.768.186l-.229-1.44c.1-.032.235-.066.391-.1s.325-.068.51-.1.378-.052.582-.072S313.853,454.4,314.061,454.4Zm.144,5.233q.263,0,.5-.012a3.514,3.514,0,0,0,.384-.036v-1.356q-.108-.024-.324-.048a3.6,3.6,0,0,0-.4-.024,3.56,3.56,0,0,0-.475.03,1.24,1.24,0,0,0-.389.114.669.669,0,0,0-.264.228.636.636,0,0,0-.1.36.614.614,0,0,0,.283.582A1.556,1.556,0,0,0,314.2,459.63Z" fill="#fff"/>
        <path id="Tracé_2438" data-name="Tracé 2438" d="M323.816,460.662a9.918,9.918,0,0,1-1.176.246,9.787,9.787,0,0,1-1.512.113,3.586,3.586,0,0,1-1.337-.215,2.028,2.028,0,0,1-.847-.606,2.35,2.35,0,0,1-.443-.93,4.948,4.948,0,0,1-.133-1.188v-3.516h1.788v3.3a2.558,2.558,0,0,0,.228,1.248.907.907,0,0,0,.852.384c.128,0,.265-.006.409-.019s.271-.025.383-.041v-4.872h1.788Z" fill="#fff"/>
        <path id="Tracé_2439" data-name="Tracé 2439" d="M328,456.335l1.254-1.769H331.1l-2.19,3.07a18.8,18.8,0,0,1,1.337,1.718,15.818,15.818,0,0,1,.937,1.524h-1.917l-.242-.45c-.1-.181-.2-.368-.323-.565a2.938,2.938,0,0,0-.376-.5c-.131-.135-.259-.26-.386-.371q-.182.156-.369.344a2.476,2.476,0,0,0-.356.47c-.112.187-.222.373-.331.556s-.205.356-.289.515h-1.819c.1-.2.233-.433.4-.706s.346-.558.543-.849.41-.574.639-.849.454-.533.674-.774l-1.132-1.608q-.543-.773-1.074-1.526h1.932Z" fill="#fff"/>
      </g>
    </g>
    <g id="Groupe_683" data-name="Groupe 683">
      <rect id="Rectangle_1038" data-name="Rectangle 1038" width="57.079" height="16.686" transform="translate(290.794 463.786)" fill="#eac048"/>
    </g>
    <g id="fête_le" data-name="fête le" style="isolation: isolate">
      <g id="Groupe_1267" data-name="Groupe 1267" style="isolation: isolate">
        <path id="Tracé_2440" data-name="Tracé 2440" d="M301.3,466.275a4.533,4.533,0,0,1,1.078.12,5.193,5.193,0,0,1,.756.231l-.406,1.666a2.742,2.742,0,0,0-.609-.189,3.265,3.265,0,0,0-.609-.063,1.678,1.678,0,0,0-.637.1.984.984,0,0,0-.406.287,1.1,1.1,0,0,0-.21.433,2.256,2.256,0,0,0-.063.547v.363h2.576v1.737H300.2v5.628H298.11v-7.756a2.864,2.864,0,0,1,3.192-3.109Z" fill="#fff"/>
      </g>
      <g id="Groupe_1268" data-name="Groupe 1268" style="isolation: isolate">
        <path id="Tracé_2441" data-name="Tracé 2441" d="M303.555,473.514a4.494,4.494,0,0,1,.3-1.715,3.67,3.67,0,0,1,.791-1.226,3.288,3.288,0,0,1,1.127-.741,3.526,3.526,0,0,1,1.309-.252,3.252,3.252,0,0,1,2.478.959,3.952,3.952,0,0,1,.909,2.82c0,.122,0,.255-.013.4s-.019.272-.029.385H305.7a1.384,1.384,0,0,0,.6,1.022,2.416,2.416,0,0,0,1.427.378,5.955,5.955,0,0,0,1.128-.106,4.321,4.321,0,0,0,.9-.258l.279,1.694a2.955,2.955,0,0,1-.447.168,5.928,5.928,0,0,1-.623.146c-.229.042-.474.078-.735.106a7.638,7.638,0,0,1-.784.042,4.66,4.66,0,0,1-1.729-.294,3.365,3.365,0,0,1-1.218-.806,3.189,3.189,0,0,1-.715-1.211A4.818,4.818,0,0,1,303.555,473.514Zm5.628-5.4-.772.924-1.4-1.077-1.4,1.077-.8-.924,2.2-1.918Zm-.728,4.607a2.153,2.153,0,0,0-.09-.519,1.309,1.309,0,0,0-.238-.447,1.266,1.266,0,0,0-.407-.322,1.319,1.319,0,0,0-.608-.126,1.4,1.4,0,0,0-.6.119,1.237,1.237,0,0,0-.42.314,1.41,1.41,0,0,0-.26.455,2.958,2.958,0,0,0-.132.526Z" fill="#fff"/>
      </g>
      <g id="Groupe_1269" data-name="Groupe 1269" style="isolation: isolate">
        <path id="Tracé_2442" data-name="Tracé 2442" d="M312.012,467.941l2.086-.336v2.17H316.6v1.737H314.1v2.59a2.055,2.055,0,0,0,.231,1.049.99.99,0,0,0,.931.393,3.99,3.99,0,0,0,.693-.064,3.547,3.547,0,0,0,.651-.174l.294,1.624a5.937,5.937,0,0,1-.84.265,4.818,4.818,0,0,1-1.134.113,3.728,3.728,0,0,1-1.414-.232,2.212,2.212,0,0,1-.9-.643,2.412,2.412,0,0,1-.469-1,5.9,5.9,0,0,1-.133-1.3Z" fill="#fff"/>
      </g>
      <g id="Groupe_1270" data-name="Groupe 1270" style="isolation: isolate">
        <path id="Tracé_2443" data-name="Tracé 2443" d="M317.681,473.514a4.494,4.494,0,0,1,.3-1.715,3.67,3.67,0,0,1,.791-1.226,3.289,3.289,0,0,1,1.127-.741,3.526,3.526,0,0,1,1.309-.252,3.252,3.252,0,0,1,2.478.959,3.951,3.951,0,0,1,.909,2.82c0,.122,0,.255-.013.4s-.019.272-.029.385h-4.731a1.384,1.384,0,0,0,.6,1.022,2.416,2.416,0,0,0,1.427.378,5.955,5.955,0,0,0,1.128-.106,4.321,4.321,0,0,0,.9-.258l.279,1.694a2.955,2.955,0,0,1-.447.168,5.929,5.929,0,0,1-.623.146c-.229.042-.474.078-.735.106a7.639,7.639,0,0,1-.784.042,4.66,4.66,0,0,1-1.729-.294,3.365,3.365,0,0,1-1.218-.806,3.189,3.189,0,0,1-.715-1.211A4.818,4.818,0,0,1,317.681,473.514Zm4.9-.8a2.155,2.155,0,0,0-.09-.519,1.309,1.309,0,0,0-.238-.447,1.266,1.266,0,0,0-.407-.322,1.319,1.319,0,0,0-.608-.126,1.4,1.4,0,0,0-.6.119,1.236,1.236,0,0,0-.42.314,1.41,1.41,0,0,0-.26.455,2.958,2.958,0,0,0-.132.526Z" fill="#fff"/>
        <path id="Tracé_2444" data-name="Tracé 2444" d="M332.507,477.279a5.179,5.179,0,0,1-1.477-.195,2.176,2.176,0,0,1-.9-.512,1.683,1.683,0,0,1-.448-.8,4.315,4.315,0,0,1-.119-1.056v-8.107l2.086-.336V474.3a2.757,2.757,0,0,0,.042.5.877.877,0,0,0,.161.378.867.867,0,0,0,.343.252,1.9,1.9,0,0,0,.6.126Z" fill="#fff"/>
        <path id="Tracé_2445" data-name="Tracé 2445" d="M333.641,473.514a4.475,4.475,0,0,1,.3-1.715,3.67,3.67,0,0,1,.791-1.226,3.288,3.288,0,0,1,1.127-.741,3.522,3.522,0,0,1,1.309-.252,3.252,3.252,0,0,1,2.478.959,3.952,3.952,0,0,1,.909,2.82c0,.122,0,.255-.013.4s-.019.272-.029.385h-4.732a1.388,1.388,0,0,0,.6,1.022,2.416,2.416,0,0,0,1.427.378,5.955,5.955,0,0,0,1.128-.106,4.321,4.321,0,0,0,.9-.258l.279,1.694a2.955,2.955,0,0,1-.447.168,5.928,5.928,0,0,1-.623.146c-.229.042-.474.078-.735.106a7.643,7.643,0,0,1-.785.042,4.667,4.667,0,0,1-1.729-.294,3.361,3.361,0,0,1-1.217-.806,3.189,3.189,0,0,1-.715-1.211A4.818,4.818,0,0,1,333.641,473.514Zm4.9-.8a2.106,2.106,0,0,0-.091-.519,1.29,1.29,0,0,0-.237-.447,1.266,1.266,0,0,0-.407-.322,1.319,1.319,0,0,0-.608-.126,1.407,1.407,0,0,0-.6.119,1.242,1.242,0,0,0-.419.314,1.41,1.41,0,0,0-.26.455,3.05,3.05,0,0,0-.133.526Z" fill="#fff"/>
      </g>
    </g>
    <g id="Vin" style="isolation: isolate">
      <g id="Groupe_1271" data-name="Groupe 1271" style="isolation: isolate">
        <path id="Tracé_2446" data-name="Tracé 2446" d="M280.241,507.064q-1.242-2.619-2.449-5.437t-2.294-5.574q-1.087-2.757-2-5.278t-1.574-4.5h5.16q.584,1.806,1.3,3.888t1.456,4.149q.741,2.067,1.421,3.962t1.3,3.271q.586-1.369,1.281-3.262t1.436-3.962q.741-2.067,1.455-4.15t1.3-3.9h4.982q-.7,1.989-1.608,4.505t-1.988,5.276q-1.082,2.762-2.28,5.581t-2.436,5.428Z" fill="#fff"/>
        <path id="Tracé_2447" data-name="Tracé 2447" d="M300.276,486.724a2.453,2.453,0,0,1-.8,1.935,2.846,2.846,0,0,1-3.75,0,2.752,2.752,0,0,1,0-3.87,2.843,2.843,0,0,1,3.75,0A2.453,2.453,0,0,1,300.276,486.724Zm-.42,20.34h-4.47v-15.78h4.47Z" fill="#fff"/>
        <path id="Tracé_2448" data-name="Tracé 2448" d="M304.055,491.824a25.091,25.091,0,0,1,2.94-.616,24.293,24.293,0,0,1,3.78-.284,9.207,9.207,0,0,1,3.345.525,5.024,5.024,0,0,1,2.115,1.485,5.793,5.793,0,0,1,1.11,2.28,12.129,12.129,0,0,1,.331,2.94v8.91H313.2v-8.37a6.038,6.038,0,0,0-.569-3.06,2.328,2.328,0,0,0-2.131-.9q-.48,0-1.02.045t-.96.105v12.18h-4.47Z" fill="#fff"/>
      </g>
    </g>
  </g>
</svg>
